<svg enable-background="new 0 0 1000 1000" viewBox="0 0 1000 1000"
    xmlns="http://www.w3.org/2000/svg">
    <g transform="matrix(.1 0 0 -.1 0 511)">
        <path
            d="m4482.2 4999.3c-1910.2-214.3-3529.1-1514.8-4132.5-3321-93.6-274.7-162.3-563.9-212.2-880.2-49.9-328.8-49.9-1038.3 0-1373.3 162.3-1046.6 607.5-1966.3 1308.8-2694.6 420.3-439 826.1-734.5 1373.3-1007.1 1446.1-722 3139.9-688.7 4552.8 91.6 428.6 237.2 740.7 476.5 1113.2 851.1 749.1 753.1 1213.1 1681.2 1375.4 2748.6 52 343.3 52 1067.5 0 1404.5-135.3 878.1-491.1 1695.8-1032.1 2372.1-189.3 237.2-609.7 645-853.1 826.1-663.8 497.3-1362.9 796.9-2195.2 944.7-287.2 50-1003 70.8-1298.4 37.5zm1183.9-653.4c1552.3-264.3 2811.1-1298.4 3356.3-2757 183.1-491.1 251.8-892.7 251.8-1477.4 0-476.5-22.9-674.2-122.8-1061.2-58.3-220.6-239.3-728.3-262.2-728.3-12.5 0-7445.1 4113.7-7465.9 4132.4-29.1 27 428.6 584.7 640.9 782.4 674.2 622.2 1483.6 1005 2405.4 1129.9 268.5 37.5 923.9 27.1 1196.5-20.8zm-809.4-4509.1c2592.7-1437.8 3720.4-2074.5 3712.1-2093.2-27-74.9-355.8-472.3-541-659.6-1508.6-1519-3884.8-1677.2-5618.1-376.7-218.5 164.4-582.6 520.2-759.5 740.7-370.4 466.1-638.8 998.8-790.7 1568.9-110.3 414.2-133.2 605.6-133.2 1094.6 0 476.5 22.9 674.2 122.8 1061.2 60.4 235.1 241.4 728.3 264.3 728.3 10.3 0 1693.7-930.1 3743.3-2064.2z" />
        <path
            d="m4182.5 2683.4c-195.6-70.7-343.3-222.6-399.5-414.1-20.8-66.6-31.2-193.5-31.2-349.6 0-143.6-8.3-247.6-20.8-251.8-10.4-2.1 226.8-143.6 530.6-312.1l553.5-308h172.7c349.6 0 680.4-131.1 934.3-372.5 83.2-79.1 185.2-201.8 226.8-274.7l79.1-133.2 940.5-522.3 942.5-524.2 6.3 963.4c4.2 923.9 2.1 969.7-37.5 1077.8-54.1 145.7-156.1 260.1-293.4 337.1l-112.4 62.4-711.6 6.2-713.7 6.2v258c0 208.1-8.3 280.9-41.6 370.4-54.1 145.7-156.1 260.1-293.4 337.1l-112.4 62.4-769.9 4.2c-611.7 4.3-786.5.1-848.9-22.7z" />
        <path
            d="m1883.2-506.5c6.2-1489.8 6.2-1516.9 49.9-1610.5 64.5-137.3 162.3-237.2 295.5-303.8l118.6-58.3h2653 2653l120.7 58.3c66.6 33.3 116.5 70.8 112.4 83.2-4.2 16.6-1718.7 984.2-1881.1 1059.1-39.5 18.7-58.3 10.4-139.4-60.4-387-341.2-982.1-409.9-1469.1-170.6-355.8 174.8-636.7 541-719.9 934.3-29.1 139.4-31.2 453.6-4.2 557.6 6.2 22.9-703.3 430.7-1623 934.3l-172.7 93.6z" />
        <path
            d="m4280.3-412.9c20.8-133.2 126.9-335 222.6-422.4 143.6-129 291.3-185.2 486.9-187.3 158.2 0 364.1 52 364.1 91.6 0 14.6-1048.7 605.5-1075.8 605.5-6.1 0-6.1-39.5 2.2-87.4z" />
    </g>
</svg>